<?xml version="1.0" standalone="no"?>
<!DOCTYPE svg PUBLIC "-//W3C//DTD SVG 20010904//EN"
 "http://www.w3.org/TR/2001/REC-SVG-20010904/DTD/svg10.dtd">
<svg version="1.0" xmlns="http://www.w3.org/2000/svg"
 width="120pt" height="120pt" viewBox="0 0 150 150"
 preserveAspectRatio="xMidYMid meet">

<g transform="translate(0.000000,960.000000) scale(0.100000,-0.100000)"
fill="#000000" stroke="none">
<path d="M4520 8644 c-30 -2 -74 -6 -97 -10 l-43 -5 0 -198 0 -199 -77 -7
c-43 -4 -80 -7 -83 -6 -3 1 -26 85 -51 187 -26 102 -49 188 -52 190 -7 8 -259
-41 -417 -81 -124 -31 -351 -99 -370 -110 -4 -3 14 -90 40 -195 26 -105 45
-192 41 -194 -4 -3 -38 -16 -76 -31 -84 -31 -66 -48 -177 165 -44 85 -81 156
-83 158 -4 5 -250 -109 -365 -170 -111 -59 -337 -192 -353 -207 -6 -6 484
-959 507 -988 1 -1 55 32 121 73 395 247 800 403 1245 478 357 61 740 62 1100
5 459 -72 901 -242 1294 -496 54 -35 99 -63 101 -61 1 2 84 161 185 353 101
193 216 413 257 489 40 77 73 141 73 142 0 4 -228 139 -327 193 -113 61 -393
194 -399 188 -2 -1 -42 -77 -89 -167 -48 -91 -90 -168 -94 -173 -6 -6 -125 32
-152 48 -3 3 13 86 37 186 24 100 44 187 44 194 0 34 -765 226 -790 198 -4 -4
-27 -89 -50 -188 -23 -99 -44 -183 -46 -186 -2 -3 -40 -1 -86 5 l-83 11 -3
196 c-2 194 -3 197 -25 203 -25 8 -573 16 -657 10z m460 -422 l0 -198 146 -13
c80 -7 198 -21 262 -31 65 -11 126 -20 137 -20 19 0 26 19 65 180 24 98 46
184 50 190 8 13 340 -67 346 -84 2 -6 -16 -92 -40 -191 -25 -99 -42 -183 -38
-186 4 -3 63 -25 132 -49 69 -24 182 -67 252 -97 70 -29 131 -53 136 -53 4 0
48 76 97 170 78 148 92 169 110 164 15 -5 292 -149 302 -158 3 -3 -287 -558
-297 -569 -4 -5 -53 17 -108 48 -303 169 -669 302 -1032 375 -262 52 -396 65
-710 64 -363 0 -555 -23 -885 -105 -267 -66 -589 -192 -829 -324 -65 -36 -122
-62 -127 -58 -11 13 -301 565 -297 567 2 2 53 30 113 64 133 73 203 107 209
101 2 -2 40 -74 85 -159 44 -85 85 -161 90 -169 7 -11 33 -4 138 39 70 29 189
75 263 101 85 30 135 52 134 61 -1 7 -20 91 -44 186 -24 98 -39 177 -34 182
16 16 337 91 344 80 3 -5 25 -91 49 -190 34 -142 47 -180 60 -180 9 0 72 9
141 20 69 11 189 25 267 32 l143 12 0 198 0 198 185 0 185 0 0 -198z"/>
<path d="M4530 7309 c-345 -31 -690 -118 -995 -249 -993 -426 -1715 -1349
-1884 -2410 -35 -217 -44 -368 -38 -604 9 -304 43 -534 122 -805 393 -1353
1645 -2292 3054 -2291 1159 1 2200 609 2780 1622 207 361 341 783 392 1233 16
141 17 507 1 653 -120 1099 -773 2040 -1752 2525 -345 171 -664 267 -1036 312
-159 20 -502 27 -644 14z m505 -239 c716 -65 1346 -358 1845 -860 883 -886
1109 -2230 566 -3355 -381 -788 -1101 -1375 -1940 -1581 -293 -72 -683 -102
-972 -75 -783 74 -1478 434 -1988 1031 -315 367 -532 810 -635 1293 -47 220
-55 309 -56 612 0 330 14 454 85 730 102 400 297 790 556 1115 96 120 340 363
462 459 201 158 475 321 702 416 412 173 934 255 1375 215z"/>
<path d="M4679 6460 c-341 -40 -640 -264 -782 -587 -94 -212 -100 -486 -17
-715 31 -86 117 -238 134 -238 5 0 43 25 85 57 42 31 77 57 79 58 1 1 -15 31
-36 66 -175 288 -138 660 90 904 156 167 332 246 553 247 138 0 222 -19 340
-77 191 -93 332 -257 395 -460 30 -95 38 -284 17 -376 -22 -91 -51 -165 -92
-233 -19 -32 -35 -62 -35 -66 0 -10 146 -120 159 -120 27 0 131 208 162 325
30 114 37 311 14 430 -34 184 -118 347 -248 482 -171 178 -366 276 -600 302
-105 12 -121 12 -218 1z"/>
<path d="M4661 5954 c-168 -45 -312 -189 -357 -358 -9 -33 -14 -108 -14 -213
l0 -163 59 0 58 0 6 -67 c18 -184 167 -330 349 -341 98 -6 163 10 238 58 100
65 170 189 170 301 l0 48 63 3 62 3 0 165 c-1 145 -4 173 -24 233 -56 165
-188 288 -356 333 -65 18 -185 17 -254 -2z m256 -222 c65 -34 110 -78 140
-140 27 -55 28 -63 28 -212 l0 -155 -41 3 -41 3 -6 -50 c-19 -163 -171 -246
-309 -169 -55 31 -89 86 -97 155 l-6 58 -43 0 -42 0 0 155 c0 164 8 197 59
269 24 34 87 78 138 97 54 20 167 13 220 -14z"/>
<path d="M4193 4670 c-67 -26 -138 -58 -157 -69 -54 -34 -133 -126 -165 -194
-40 -86 -56 -172 -87 -472 -33 -321 -23 -304 -188 -305 l-108 0 7 27 c29 116
24 285 -11 404 -72 242 -282 444 -531 510 -108 29 -269 29 -378 0 -213 -57
-392 -203 -485 -396 -59 -123 -74 -190 -74 -335 -1 -145 18 -221 87 -355 58
-112 190 -244 302 -302 141 -72 169 -77 739 -134 290 -29 532 -56 538 -60 27
-17 -80 -611 -162 -894 -11 -38 -16 -72 -12 -76 4 -3 48 -20 99 -37 l92 -30
15 51 c65 226 127 520 165 790 l26 188 105 89 c70 60 106 85 108 75 2 -8 -4
-281 -12 -607 -9 -326 -16 -625 -16 -664 l0 -70 103 -17 c56 -9 145 -22 197
-29 127 -17 673 -17 800 0 148 19 297 44 308 51 6 4 3 252 -8 676 -10 369 -16
671 -15 673 8 9 215 -181 219 -201 3 -12 10 -65 16 -117 38 -305 164 -880 194
-880 6 0 52 13 101 29 62 20 89 33 86 42 -62 242 -95 380 -116 489 -28 149
-75 463 -70 468 2 2 68 10 147 17 585 56 793 75 809 75 18 0 19 11 19 172 l0
172 257 258 c142 142 260 258 263 258 3 0 5 -30 5 -67 l0 -68 78 -3 77 -3 0
211 0 210 -207 -2 -208 -3 -3 -77 -3 -77 76 -3 75 -3 -200 -200 -200 -200 0
350 0 349 50 -49 50 -50 58 58 57 57 -148 147 -147 148 -145 -145 c-80 -80
-145 -149 -145 -155 0 -13 92 -105 105 -105 5 0 31 21 57 47 l48 47 0 -349 0
-350 -200 200 -200 200 70 3 70 3 0 79 0 80 -205 0 -205 0 0 -210 0 -210 75 0
75 0 0 70 c0 39 1 70 3 70 4 0 307 -303 307 -307 0 -2 -141 -3 -312 -3 l-313
1 -34 28 -35 28 -32 292 c-39 348 -55 407 -144 527 -52 69 -121 112 -274 168
-118 44 -132 47 -166 37 -179 -54 -650 -54 -830 -1 -48 14 -50 14 -187 -40z
m1155 -210 c104 -40 133 -65 172 -144 28 -57 34 -85 56 -277 13 -118 24 -224
24 -236 0 -23 -1 -23 -152 -23 -229 0 -340 32 -450 129 -43 38 -464 550 -456
555 1 1 59 0 128 -3 156 -7 382 4 475 23 85 17 98 16 203 -24z m-993 -106 l86
-105 -23 -19 c-13 -10 -113 -95 -223 -188 -110 -93 -201 -168 -203 -167 -8 7
39 365 52 403 34 95 93 150 196 184 21 7 20 8 115 -108z m-1403 -4 c216 -81
350 -276 350 -510 1 -156 -56 -286 -173 -394 -213 -198 -529 -193 -742 12
-287 277 -185 751 192 893 109 41 263 41 373 -1z m1674 -332 c180 -231 267
-312 395 -373 71 -33 174 -65 210 -65 15 0 18 -17 23 -122 9 -193 39 -1468 34
-1473 -2 -2 -73 -11 -157 -20 -194 -19 -495 -19 -676 0 -77 8 -143 15 -147 15
-3 0 -4 66 -2 148 3 81 14 511 25 957 11 445 23 813 28 818 24 24 207 176 212
177 3 0 28 -28 55 -62z m-497 -440 l0 -133 -96 -80 c-52 -44 -121 -101 -152
-127 l-57 -47 -289 30 c-160 16 -292 29 -293 29 -2 0 28 34 67 76 39 42 71 80
71 85 0 5 90 9 203 9 l202 1 170 144 c94 79 171 144 173 145 1 0 2 -60 1 -132z
m1600 -83 l84 -75 428 0 429 0 0 -73 0 -72 -451 -42 -451 -42 -219 185 c-120
103 -219 188 -219 190 0 2 71 4 158 4 l157 -1 84 -74z"/>
<path d="M2620 3845 l0 -145 145 0 145 0 0 145 0 145 -145 0 -145 0 0 -145z"/>
</g>
</svg>
